<?xml version="1.0" encoding="UTF-8" standalone="no"?>
<!-- Created with Inkscape (http://www.inkscape.org/) -->
<svg xmlns:rdf="http://www.w3.org/1999/02/22-rdf-syntax-ns#" xmlns="http://www.w3.org/2000/svg" xmlns:cc="http://creativecommons.org/ns#" xmlns:xlink="http://www.w3.org/1999/xlink" xmlns:dc="http://purl.org/dc/elements/1.1/" xmlns:svg="http://www.w3.org/2000/svg" xmlns:inkscape="http://www.inkscape.org/namespaces/inkscape" xmlns:sodipodi="http://sodipodi.sourceforge.net/DTD/sodipodi-0.dtd" xmlns:ns1="http://sozi.baierouge.fr" id="svg2" viewBox="0 0 185.44 246.8" version="1.1" inkscape:version="0.91 r13725">
  <title id="title4152">Badminton Shuttlecock</title>
  <defs id="defs6">
    <linearGradient id="linearGradient5028">
      <stop id="stop5030" style="stop-color:#dbe2e3" offset="0"/>
      <stop id="stop5032" style="stop-color:#d7eef4" offset="1"/>
    </linearGradient>
    <linearGradient id="linearGradient3182" y2="-475.27" gradientUnits="userSpaceOnUse" x2="926.09" gradientTransform="translate(1)" y1="-365.14" x1="981.15">
      <stop id="stop4990" style="stop-color:#bdbdbd" offset="0"/>
      <stop id="stop4992" style="stop-color:#afdde9" offset="1"/>
    </linearGradient>
    <linearGradient id="linearGradient3184" y2="-464.01" gradientUnits="userSpaceOnUse" x2="964.26" gradientTransform="translate(1)" y1="-367.02" x1="983.03">
      <stop id="stop4998" style="stop-color:#bdbdbd" offset="0"/>
      <stop id="stop5000" style="stop-color:#d7eef4" offset="1"/>
    </linearGradient>
    <linearGradient id="linearGradient3186" y2="-453.06" gradientUnits="userSpaceOnUse" x2="1005.6" gradientTransform="translate(2)" y1="-352.31" x1="981.78">
      <stop id="stop5006" style="stop-color:#bdbdbd" offset="0"/>
      <stop id="stop5008" style="stop-color:#d7eef4" offset="1"/>
    </linearGradient>
    <linearGradient id="linearGradient3188" y2="-454.31" gradientUnits="userSpaceOnUse" x2="1025.6" y1="-322.9" x1="1004.9">
      <stop id="stop5014" style="stop-color:#bdbdbd" offset="0"/>
      <stop id="stop5016" style="stop-color:#d7eef4" offset="1"/>
    </linearGradient>
    <linearGradient id="linearGradient3190" y2="-474.33" gradientUnits="userSpaceOnUse" x2="1054.4" y1="-362.95" x1="1038.1">
      <stop id="stop5022" style="stop-color:#dbe2e3" offset="0"/>
      <stop id="stop5024" style="stop-color:#d7eef4" offset="1"/>
    </linearGradient>
    <linearGradient id="linearGradient3192" y2="-417.39" xlink:href="#linearGradient5028" gradientUnits="userSpaceOnUse" x2="1086.9" y1="-356.69" x1="1048.1"/>
    <linearGradient id="linearGradient3194" y2="-453.99" xlink:href="#linearGradient5028" gradientUnits="userSpaceOnUse" x2="1091.9" y1="-368.89" x1="1073.1"/>
    <linearGradient id="linearGradient3196" y2="-491.85" gradientUnits="userSpaceOnUse" x2="1131.3" gradientTransform="translate(-1)" y1="-309.14" x1="1046.9">
      <stop id="stop5046" style="stop-color:#bdbdbd" offset="0"/>
      <stop id="stop5048" style="stop-color:#afdde9" offset="1"/>
    </linearGradient>
    <linearGradient id="linearGradient3211" y2="-209.75" gradientUnits="userSpaceOnUse" x2="852.17" gradientTransform="matrix(1.0512 .23623 -.23623 1.0512 -617.97 172.1)" y1="-209.75" x1="742.22">
      <stop id="stop5087" style="stop-color:#c0c0c0" offset="0"/>
      <stop id="stop5089" style="stop-color:#dedede" offset="1"/>
    </linearGradient>
    <linearGradient id="linearGradient3214" y2="-161.4" gradientUnits="userSpaceOnUse" x2="834.73" gradientTransform="matrix(1.0774 0 0 1.0774 -566.77 303.76)" y1="-161.4" x1="763.71">
      <stop id="stop4918" style="stop-color:#550000" offset="0"/>
      <stop id="stop4926" style="stop-color:#550000" offset=".46121"/>
      <stop id="stop4924" style="stop-color:#aa0000" offset=".78161"/>
      <stop id="stop4920" style="stop-color:#550000" offset="1"/>
    </linearGradient>
    <radialGradient id="radialGradient3217" gradientUnits="userSpaceOnUse" cy="-104.48" cx="776.55" gradientTransform="matrix(1.8414 .41762 -.36697 1.6181 -1248.6 86.73)" r="35.278">
      <stop id="stop4900" style="stop-color:#666666" offset="0"/>
      <stop id="stop4902" style="stop-color:#e6e6e6" offset="1"/>
    </radialGradient>
    <linearGradient id="linearGradient3220" y2="-231.77" gradientUnits="userSpaceOnUse" x2="978.67" gradientTransform="matrix(1.1136 .25024 -.25024 1.1136 -932.17 136.83)" y1="-233.34" x1="1081.3">
      <stop id="stop4966" style="stop-color:#b3b3b3" offset="0"/>
      <stop id="stop4968" style="stop-color:#ececec" offset="1"/>
    </linearGradient>
  </defs>
  <g id="g3999" transform="matrix(.92012 0 0 .92012 -180.1 13.668)">
    <g id="g5052" transform="matrix(1.1648 .26176 -.27878 1.2406 -1025.9 311.48)">
      <path id="path4972" style="fill:url(#linearGradient3182)" d="m941.48-460.25-0.62574 9.386 26.281 65.076 14.392 16.895-32.538-88.229z"/>
      <path id="path4974" style="fill:url(#linearGradient3184)" d="m947.24-457.75 8.1345-6.8831 15.018 10.012 16.269 70.708-5.6316 14.392z"/>
      <path id="path4976" style="fill:url(#linearGradient3186)" d="m969.39-455.25 9.386-9.386 16.895 10.637 14.392 67.579-10.637 18.772-12.515-11.889z"/>
      <path id="path4978" style="fill:url(#linearGradient3188)" d="m1000.5-385.79 15.643 15.018 14.392-13.766v-72.585l-16.269-9.386-18.146 13.14z"/>
      <path id="path4980" style="fill:url(#linearGradient3190)" d="m1031.8-458.37 16.895-10.012 15.018 9.386-11.263 76.965-8.7603 11.889-13.766-11.889 0.6258-78.843z"/>
      <path id="path4982" style="fill:url(#linearGradient3192)" d="m1064.4-460.88 12.515-5.0059 10.012 8.1346-21.275 78.217-5.0059 10.637-10.638-11.889z"/>
      <path id="path4984" style="fill:url(#linearGradient3194)" d="m1086.9-461.5 14.392-3.1287 5.0059 13.766-27.532 78.217-5.6316 5.6316-9.386-10.012z"/>
      <path id="path4986" style="fill:url(#linearGradient3196)" d="m1100.3-458.37 9.386-10.012 3.1287 15.643-33.164 81.345z"/>
    </g>
    <path id="path4947" style="fill:url(#linearGradient3220)" d="m324.67 12.969-3.2885-0.0078-60.312 175.67 9.9354 2.9638 53.666-178.62zm-38.59-5.7473-3.21-0.3558-33.66 179.09l9.7006 2.5454 27.175-181.28zm66.189 14.874-79.018 169.27 10.596 1.65 0.0156-0.0696 7.7717 1.856-2.1477 3.5386 3.5281 1.7068 46.829-79.224-3.1569 0.0583-37.425 61.45 77.808-151.52-3.0425-0.9396-84.826 150.38 66.235-157.45-3.1667-0.71162zm-112.59-24.934-2.354 187.96 9.6305 1.0674-4.1446-188.32-3.132-0.70381zm-24.707-4.0899-2.4008 0.92278 15.304 175.91-10.529-75.48-3.1445 1.304 10.41 89.674 5.2759-1.1906-0.49861-3.4753 7.1695 1.2821-21.587-188.95z"/>
    <path id="path4896" style="fill:url(#radialGradient3217)" d="m219.71 190.78c-6.4322 24.544-3.727 42.406 7.8437 52.63 2.0491 2.5099 3.754 3.7404 6.5326 5.0225 3.2828 1.5147 6.9599 2.6829 10.751 3.4512 3.7605 0.92996 7.606 1.4521 11.227 1.4875 3.0614 0.03 5.1252-0.35123 8.0533-1.7448 14.829-4.2933 24.92-19.282 29.606-44.215l-2.0368-0.4577-69.94-15.717-2.0368-0.4577z"/>
    <rect id="rect4906" style="fill:url(#linearGradient3214)" transform="rotate(12.665)" height="16.181" width="76.521" y="121.77" x="256.08"/>
    <path id="rect5078" style="fill:url(#linearGradient3211)" d="m215.29 111.54 0.97408 4.3628 112.12 26.172 2.3864-4.0963zm4.2756 29.897 1.1258 3.6876 92.789 20.851 2.2869-3.6536z"/>
  </g>
  <metadata>
    <rdf:RDF>
      <cc:Work>
        <dc:format>image/svg+xml</dc:format>
        <dc:type rdf:resource="http://purl.org/dc/dcmitype/StillImage"/>
        <cc:license rdf:resource="http://creativecommons.org/licenses/publicdomain/"/>
        <dc:publisher>
          <cc:Agent rdf:about="http://openclipart.org/">
            <dc:title>Openclipart</dc:title>
          </cc:Agent>
        </dc:publisher>
        <dc:title>Badminton Shuttlecock</dc:title>
        <dc:date>2012-06-16T08:21:31</dc:date>
        <dc:description>A badminton shuttlecock, based on gnokii work.</dc:description>
        <dc:source>https://openclipart.org/detail/170713/badminton-shuttlecock-by-dooblem-170713</dc:source>
        <dc:creator>
          <cc:Agent>
            <dc:title>dooblem</dc:title>
          </cc:Agent>
        </dc:creator>
        <dc:subject>
          <rdf:Bag>
            <rdf:li>badminton</rdf:li>
            <rdf:li>shuttle</rdf:li>
            <rdf:li>shuttlecock</rdf:li>
          </rdf:Bag>
        </dc:subject>
      </cc:Work>
      <cc:License rdf:about="http://creativecommons.org/licenses/publicdomain/">
        <cc:permits rdf:resource="http://creativecommons.org/ns#Reproduction"/>
        <cc:permits rdf:resource="http://creativecommons.org/ns#Distribution"/>
        <cc:permits rdf:resource="http://creativecommons.org/ns#DerivativeWorks"/>
      </cc:License>
    </rdf:RDF>
  </metadata>
</svg>
