<?xml version="1.0" encoding="utf-8"?>
<svg
      xmlns="http://www.w3.org/2000/svg"
      xmlnsBx="https://boxy-svg.com"
      width="238.519"
      height="291.63"
      viewBox="-29.445 -19.78 238.519 291.63"
    >
      <defs>
        <linearGradient
          id="gradient-1"
          x1="742.22"
          x2="852.17"
          y1="-209.75"
          y2="-209.75"
          gradientTransform="matrix(1.37027 .31674 -.30793 1.40947 -849.18 202.906)"
          gradientUnits="userSpaceOnUse"
        >
          <stop offset="0" stopColor="silver"></stop>
          <stop offset="1" stopColor="#dedede"></stop>
        </linearGradient>
        <linearGradient
          id="gradient-3"
          x1="742.22"
          x2="852.17"
          y1="-209.75"
          y2="-209.75"
          gradientTransform="matrix(1.54611 .36474 -.34745 1.62305 -969.96 216.091)"
          gradientUnits="userSpaceOnUse"
        >
          <stop offset="0" stopColor="silver"></stop>
          <stop offset="1" stopColor="#dedede"></stop>
        </linearGradient>
        <linearGradient
          id="gradient-4"
          x1="1004.9"
          x2="1025.6"
          y1="-322.9"
          y2="-454.31"
          gradientTransform="matrix(.33673 0 0 .56019 -225.958 274.588)"
          gradientUnits="userSpaceOnUse"
        >
          <stop offset="0" stopColor="#bdbdbd"></stop>
          <stop offset="1" stopColor="#d7eef4"></stop>
        </linearGradient>
        <linearGradient
          id="linearGradient3188"
          x1="1004.9"
          x2="1025.6"
          y1="-322.9"
          y2="-454.31"
          gradientTransform="matrix(.33894 0 0 .61842 -251.748 294.638)"
          gradientUnits="userSpaceOnUse"
        >
          <stop offset="0" stopColor="#bdbdbd"></stop>
          <stop offset="1" stopColor="#d7eef4"></stop>
        </linearGradient>
        <linearGradient
          id="linearGradient3214"
          x1="763.71"
          x2="834.73"
          y1="-161.4"
          y2="-161.4"
          gradientTransform="translate(-1222.249 684.216) scale(2.35578)"
          gradientUnits="userSpaceOnUse"
        >
          <stop offset="0" stopColor="#500"></stop>
          <stop offset="0.461" stopColor="#500"></stop>
          <stop offset="0.782" stopColor="#a00"></stop>
          <stop offset="1" stopColor="#500"></stop>
        </linearGradient>
        <linearGradient
          id="gradient-8"
          x1="1004.9"
          x2="1025.6"
          y1="-322.9"
          y2="-454.31"
          gradientTransform="matrix(.39534 0 .0032 .59871 -351.296 297.631)"
          gradientUnits="userSpaceOnUse"
        >
          <stop offset="0" stopColor="#bdbdbd"></stop>
          <stop offset="1" stopColor="#d7eef4"></stop>
        </linearGradient>
        <linearGradient
          id="gradient-18"
          x1="1004.9"
          x2="1025.6"
          y1="-322.9"
          y2="-454.31"
          gradientTransform="matrix(.26208 0 0 .55721 -223.822 303.317)"
          gradientUnits="userSpaceOnUse"
        >
          <stop offset="0" stopColor="#bdbdbd"></stop>
          <stop offset="1" stopColor="#d7eef4"></stop>
        </linearGradient>
        <linearGradient
          id="gradient-17"
          x1="1004.9"
          x2="1025.6"
          y1="-322.9"
          y2="-454.31"
          gradientTransform="matrix(.39078 0 0 .6604 -373.859 383.207)"
          gradientUnits="userSpaceOnUse"
        >
          <stop offset="0" stopColor="#bdbdbd"></stop>
          <stop offset="1" stopColor="#d7eef4"></stop>
        </linearGradient>
        <linearGradient
          id="gradient-16"
          x1="1004.9"
          x2="1025.6"
          y1="-322.9"
          y2="-454.31"
          gradientTransform="matrix(.26208 0 0 .55721 -243.911 358.757)"
          gradientUnits="userSpaceOnUse"
        >
          <stop offset="0" stopColor="#bdbdbd"></stop>
          <stop offset="1" stopColor="#d7eef4"></stop>
        </linearGradient>
        <linearGradient
          id="gradient-15"
          x1="1004.9"
          x2="1025.6"
          y1="-322.9"
          y2="-454.31"
          gradientTransform="matrix(.39534 0 .0032 .59871 -377.868 408.543)"
          gradientUnits="userSpaceOnUse"
        >
          <stop offset="0" stopColor="#bdbdbd"></stop>
          <stop offset="1" stopColor="#d7eef4"></stop>
        </linearGradient>
        <linearGradient
          id="gradient-9"
          x1="1004.9"
          x2="1025.6"
          y1="-322.9"
          y2="-454.31"
          gradientTransform="matrix(.26208 0 0 .55721 -201.548 412.509)"
          gradientUnits="userSpaceOnUse"
        >
          <stop offset="0" stopColor="#bdbdbd"></stop>
          <stop offset="1" stopColor="#d7eef4"></stop>
        </linearGradient>
        <linearGradient
          id="gradient-5"
          x1="1004.9"
          x2="1025.6"
          y1="-322.9"
          y2="-454.31"
          gradientTransform="matrix(.29526 0 0 .5771 -232.544 435.018)"
          gradientUnits="userSpaceOnUse"
        >
          <stop offset="0" stopColor="#bdbdbd"></stop>
          <stop offset="1" stopColor="#d7eef4"></stop>
        </linearGradient>
        <linearGradient
          id="gradient-7"
          x1="1004.9"
          x2="1025.6"
          y1="-322.9"
          y2="-454.31"
          gradientTransform="matrix(.26208 0 0 .55721 -137.856 423.376)"
          gradientUnits="userSpaceOnUse"
        >
          <stop offset="0" stopColor="#bdbdbd"></stop>
          <stop offset="1" stopColor="#d7eef4"></stop>
        </linearGradient>
        <linearGradient
          id="gradient-6"
          x1="1004.9"
          x2="1025.6"
          y1="-322.9"
          y2="-454.31"
          gradientTransform="matrix(.26208 0 0 .55721 -120.91 406.794)"
          gradientUnits="userSpaceOnUse"
        >
          <stop offset="0" stopColor="#bdbdbd"></stop>
          <stop offset="1" stopColor="#d7eef4"></stop>
        </linearGradient>
        <linearGradient
          id="gradient-13"
          x1="1004.9"
          x2="1025.6"
          y1="-322.9"
          y2="-454.31"
          gradientTransform="matrix(.33894 0 0 .61842 -183.072 416.057)"
          gradientUnits="userSpaceOnUse"
        >
          <stop offset="0" stopColor="#bdbdbd"></stop>
          <stop offset="1" stopColor="#d7eef4"></stop>
        </linearGradient>
        <linearGradient
          id="gradient-14"
          x1="1004.9"
          x2="1025.6"
          y1="-322.9"
          y2="-454.31"
          gradientTransform="matrix(.26208 0 0 .55721 -77.816 349.215)"
          gradientUnits="userSpaceOnUse"
        >
          <stop offset="0" stopColor="#bdbdbd"></stop>
          <stop offset="1" stopColor="#d7eef4"></stop>
        </linearGradient>
        <linearGradient
          id="gradient-12"
          x1="1004.9"
          x2="1025.6"
          y1="-322.9"
          y2="-454.31"
          gradientTransform="matrix(.39078 0 0 .6604 -216.058 373.228)"
          gradientUnits="userSpaceOnUse"
        >
          <stop offset="0" stopColor="#bdbdbd"></stop>
          <stop offset="1" stopColor="#d7eef4"></stop>
        </linearGradient>
        <linearGradient
          id="gradient-11"
          x1="1004.9"
          x2="1025.6"
          y1="-322.9"
          y2="-454.31"
          gradientTransform="matrix(.33894 0 0 .61842 -180.614 325.09)"
          gradientUnits="userSpaceOnUse"
        >
          <stop offset="0" stopColor="#bdbdbd"></stop>
          <stop offset="1" stopColor="#d7eef4"></stop>
        </linearGradient>
        <linearGradient
          id="gradient-10"
          x1="1004.9"
          x2="1025.6"
          y1="-322.9"
          y2="-454.31"
          gradientTransform="matrix(.29526 0 0 .5771 -159.745 287.933)"
          gradientUnits="userSpaceOnUse"
        >
          <stop offset="0" stopColor="#bdbdbd"></stop>
          <stop offset="1" stopColor="#d7eef4"></stop>
        </linearGradient>
        <linearGradient
          id="linearGradient3220"
          x1="1081.3"
          x2="978.67"
          y1="-233.34"
          y2="-231.77"
          gradientTransform="rotate(12.665 -549.82 -4450.16) scale(1.0502)"
          gradientUnits="userSpaceOnUse"
        >
          <stop offset="0" stopColor="#b3b3b3"></stop>
          <stop offset="1" stopColor="#ececec"></stop>
        </linearGradient>
        <linearGradient
          id="gradient-2"
          x1="1081.3"
          x2="978.67"
          y1="-233.34"
          y2="-231.77"
          gradientTransform="matrix(.99362 .2317 -.22328 1.03109 -950.777 81.42)"
          gradientUnits="userSpaceOnUse"
        >
          <stop offset="0" stopColor="#b3b3b3"></stop>
          <stop offset="1" stopColor="#ececec"></stop>
        </linearGradient>
        <radialGradient
          id="radialGradient3217"
          cx="776.55"
          cy="-104.48"
          r="35.278"
          gradientTransform="matrix(3.96726 .89975 -.79063 3.48617 -2736.653 84.51)"
          gradientUnits="userSpaceOnUse"
        >
          <stop offset="0" stopColor="#666"></stop>
          <stop offset="1" stopColor="#e6e6e6"></stop>
        </radialGradient>
      </defs>
      <path
        fill="url(#gradient-1)"
        d="M48.04999999999999 114.958a42.529 43.684 0 1085.058 0 42.529 43.684 0 10-85.058 0zM49.886 114.958a40.693 41.885 0 0181.386 0 40.693 41.885 0 01-81.386 0z"
        bxShape="ring 90.579 114.958 40.693 41.885 42.529 43.684 1@b8b190b8"
      ></path>
      <path
        fill="url(#gradient-3)"
        d="M42.472 114.817a47.924 50.504 0 1095.848 0 47.924 50.504 0 10-95.848 0zM44.082 114.817a46.314 48.735 0 0192.628 0 46.314 48.735 0 01-92.628 0z"
        bxShape="ring 90.396 114.817 46.314 48.735 47.924 50.504 1@6ce85c73"
      ></path>
      <path
        fill="url(#gradient-4)"
        d="M100.37 64.634l12.22 4.213 12.595-4.612 8.706-35.103-15.972-17.253-21.124 10.703 3.575 42.052z"
        transform="rotate(12.665 115.343 40.363)"
      ></path>
      <path
        fill="url(#linearGradient3188)"
        d="M77.675 65.399l14.343-.305 10.372-10.925-6.235-34.058L72.232 9.859l-12.259 26.52 17.702 29.02z"
        transform="rotate(12.665 81.182 37.629)"
      ></path>
      <path
        fill="url(#linearGradient3214)"
        d="M53.147000000000006 114.606a37.672 37.672 0 1075.344 0 37.672 37.672 0 10-75.344 0zM57.271 114.606a33.548 33.548 0 0167.096 0 33.548 33.548 0 01-67.096 0z"
        bxShape="ring 90.819 114.606 33.548 33.548 37.672 37.672 1@aa0390c2"
      ></path>
      <path
        fill="url(#gradient-8)"
        d="M30.651 73.193l14.37 4.502 14.761-4.93 10.021-37.516-18.85-18.439-24.738 11.439 4.436 44.944z"
        transform="rotate(-36.994 48.009 47.253)"
      ></path>
      <path
        fill="url(#gradient-18)"
        d="M8.121 106.007l25.443 1.195 16.391-21.568L24.212 48.27l-13.958 3.257-12.687 9.168 10.554 45.312z"
        transform="rotate(141.606 21.186 77.19)"
      ></path>
      <path
        fill="url(#gradient-17)"
        d="M5.955 138.405l16.536-.324 11.959-11.667-7.188-36.37L-.321 79.097l-14.134 28.319 20.41 30.989z"
        transform="rotate(-63.451 9.998 108.751)"
      ></path>
      <path
        fill="url(#gradient-16)"
        d="M11.649 162.939l20.648-12.962 5.413-22.729-34.803-22.985-15.013 6.853-3.575 16.342 27.33 35.481z"
        transform="rotate(119.476 11.015 133.601)"
      ></path>
      <path
        fill="url(#gradient-15)"
        d="M4.078 184.105l14.37 4.502 14.761-4.93 10.021-37.516-18.85-18.439-24.738 11.439 4.436 44.944z"
        transform="rotate(-123.039 21.436 158.164)"
      ></path>
      <path
        fill="url(#gradient-9)"
        d="M27.54 214.254l26.414-1.304 12.845-17.789-23.832-36.649-13.235 1.852-9.612 11.345 7.42 42.545z"
        transform="rotate(59.393 43.46 186.383)"
      ></path>
      <path
        fill="url(#gradient-5)"
        d="M48.929 217.558l15.374 5.504 12.145-2.393 7.927-38.652-15.4-17.644-22.404 11.196 2.358 41.989z"
        transform="rotate(-167.335 66.716 193.718)"
      ></path>
      <path
        fill="url(#gradient-7)"
        d="M91.231 225.121l26.414-1.304 12.845-17.789-23.832-36.649-13.235 1.852-9.612 11.345 7.42 42.545z"
        transform="rotate(12.665 114.26 194.801)"
      ></path>
      <path
        fill="url(#gradient-6)"
        d="M134.65 210.977l20.648-12.962 5.413-22.729-34.803-22.985-15.013 6.853-3.575 16.342 27.33 35.481z"
        transform="rotate(12.665 131.207 178.22)"
      ></path>
      <path
        fill="url(#gradient-13)"
        d="M146.233 185.965l14.461.548 13.99-9.254-6.931-41.876-26.376-6.055-15.574 20.629 20.43 36.008z"
        transform="rotate(134.34 156.451 156.434)"
        bxOrigin="0.627 0.474"
      ></path>
      <path
        fill="url(#gradient-14)"
        d="M151.272 150.96l26.414-1.304 12.845-17.788-23.832-36.649-13.235 1.852-9.612 11.345 7.42 42.544z"
        transform="rotate(-55.879 167.192 123.09)"
      ></path>
      <path
        fill="url(#gradient-12)"
        d="M163.756 128.426l16.536-.324 11.959-11.667-7.188-36.37-27.583-10.947-14.134 28.319 20.41 30.989z"
        transform="rotate(96.796 167.798 98.772)"
      ></path>
      <path
        fill="url(#gradient-11)"
        d="M148.81 95.85l14.343-.305 10.372-10.925-6.235-34.058-23.923-10.252-12.259 26.52 17.702 29.02z"
        transform="rotate(67.578 152.317 68.08)"
      ></path>
      <path
        fill="url(#gradient-10)"
        d="M121.726 70.472l15.374 5.504 12.145-2.393 7.927-38.652-15.4-17.644-22.404 11.196 2.358 41.989z"
        transform="rotate(30.745 138.27 46.631)"
      ></path>
      <path
        fill="url(#linearGradient3220)"
        d="M80.259 14.945l-3.168.386 3.449 65.483c-.075-1.256 12.442-2.609 12.487-1.862L80.259 14.945zm-45.494 9.378l-2.55 1.775 34.06 62.354c-.864-.501 9.745-8.614 12.075-7.263L34.765 24.323zm85.346-7.722L94.777 79.549c1.233-1.625 11.214 1.583 10.481 2.549 1.018-1.182 8.667 4.15 8.061 4.853.799-.369 3.363 2.311 2.888 2.531.091-.093 3.995 3.029 3.75 3.279.245-.25 3.183 5.083 3.092 5.176l45.85-40.799-2.095-2.678-48.333 29.718 34.41-54.457-2.235-1.814-42.045 49.169 14.595-59.374-3.085-1.101zM-2.893 65.764l60.889 34.407c-.485-3.336 6.653-11.385 6.711-10.984L-1.521 62.41l-1.372 3.354zm-10.739 37.683l-.108 2.832 63.338 9.374-58.224 23.723 1.608 2.43 64.092-13.123c-.659.518-3.287-12.075-2.179-12.946-.397-.263-.117-8.802.55-8.359-.154-.278 1.276-6.897 1.692-6.148l-70.769 2.217z"
      ></path>
      <path
        fill="url(#gradient-2)"
        d="M81.561 82.719l-3.51.952 7.283 67.85c1.839-2.13 14.218-2.922 13.125-1.655L81.561 82.719zm-37.418 18.323l-2.862 1.819 31.893 56.308c-.58-.906 10.27-8.533 11.368-7.288l-40.399-50.839zm79.82-16.477l-24.291 65.42c1.194-.859 12.648 1.542 11.454 2.401.088-.865 7.246 2.735 7.098 4.19.898-1.236 6.182 4.093 5.981 4.37.79-.388 4.758 4.397 3.429 5.05.597-.352 2.743 3.943 2.146 4.295l57.549-38.299-1.765-2.553-56.454 28.031 30.007-57.704-3.192-1.749-38.049 51.596 10.038-63.86-3.951-1.188zM12.847 139.503l52.047 30.524c-1.345-.043 6.503-10.609 7.848-10.566l-58.949-22.436-.946 2.478zm-11.652 30.08l-.162 3.439 55.678 10.819-58.964 19.548.605 2.88 64.992-7.055-2.055-13.16.01-3.552c-.79-4.047 3.181-12.699 3.116-11.332l-63.22-1.587z"
        transform="rotate(180 93.852 150.084)"
      ></path>
      <ellipse
        cx="91.058"
        cy="114.317"
        fill="url(#radialGradient3217)"
        rx="34.094"
        ry="34.094"
      ></ellipse>
      <ellipse
        cx="90.603"
        cy="114.288"
        fill="#09611D"
        stroke="#000"
        rx="35.445"
        ry="35.512"
      ></ellipse>
      <text
        fill="#FFF"
        fontFamily="Alegreya SC"
        fontSize="11.1"
        textAnchor="middle"
        transform="matrix(.97512 0 0 .98224 93.41 10.803)"
      >
        <tspan x="-3.958" y="98.564">
          Dirk Page
        </tspan>
        <tspan x="-3.958" dy="1em">
          ​
        </tspan>
        <tspan>Is</tspan>
        <tspan x="-3.958" dy="1em">
          ​
        </tspan>
        <tspan>Awesome</tspan>
      </text>
    </svg>