<?xml version="1.0" encoding="utf-8"?>
<svg viewBox="16.724 -9.924 243.093 248.454" width="243.093" height="248.454" xmlns="http://www.w3.org/2000/svg" xmlns:bx="https://boxy-svg.com">
  <defs>
    <linearGradient id="gradient-6" y2="-454.31" gradientUnits="userSpaceOnUse" x2="1025.6" y1="-322.9" x1="1004.9" gradientTransform="matrix(0.262079, 0, 0.000003, 0.557214, -43.579713, 343.733978)">
      <stop id="stop-11" style="stop-color:#bdbdbd" offset="0"/>
      <stop id="stop-12" style="stop-color:#d7eef4" offset="1"/>
    </linearGradient>
    <linearGradient id="gradient-5" y2="-454.31" gradientUnits="userSpaceOnUse" x2="1025.6" y1="-322.9" x1="1004.9" gradientTransform="matrix(0.390785, 0, 0.000004, 0.660405, -170.488039, 365.675786)">
      <stop id="stop-9" style="stop-color:#bdbdbd" offset="0"/>
      <stop id="stop-10" style="stop-color:#d7eef4" offset="1"/>
    </linearGradient>
    <linearGradient id="gradient-4" y2="-454.31" gradientUnits="userSpaceOnUse" x2="1025.6" y1="-322.9" x1="1004.9" gradientTransform="matrix(0.336734, 0, 0.000004, 0.560185, -155.241597, 301.992874)">
      <stop id="stop-7" style="stop-color:#bdbdbd" offset="0"/>
      <stop id="stop-8" style="stop-color:#d7eef4" offset="1"/>
    </linearGradient>
    <linearGradient id="gradient-9" y2="-454.31" gradientUnits="userSpaceOnUse" x2="1025.6" y1="-322.9" x1="1004.9" gradientTransform="matrix(0.390785, 0, 0.000004, 0.660404, -317.143212, 336.776082)">
      <stop id="stop-17" style="stop-color:#bdbdbd" offset="0"/>
      <stop id="stop-18" style="stop-color:#d7eef4" offset="1"/>
    </linearGradient>
    <linearGradient id="gradient-8" y2="-454.31" gradientUnits="userSpaceOnUse" x2="1025.6" y1="-322.9" x1="1004.9" gradientTransform="matrix(0.390786, 0, 0.000004, 0.660407, -307.419983, 309.84029)">
      <stop id="stop-15" style="stop-color:#bdbdbd" offset="0"/>
      <stop id="stop-16" style="stop-color:#d7eef4" offset="1"/>
    </linearGradient>
    <linearGradient id="gradient-7" y2="-454.31" gradientUnits="userSpaceOnUse" x2="1025.6" y1="-322.9" x1="1004.9" gradientTransform="matrix(0.336735, 0, 0.000004, 0.560186, -246.138963, 288.978391)">
      <stop id="stop-13" style="stop-color:#bdbdbd" offset="0"/>
      <stop id="stop-14" style="stop-color:#d7eef4" offset="1"/>
    </linearGradient>
    <linearGradient id="gradient-16" y2="-454.31" gradientUnits="userSpaceOnUse" x2="1025.6" y1="-322.9" x1="1004.9" gradientTransform="matrix(0.262079, 0, 0.000003, 0.557214, -136.002066, 270.009925)">
      <stop id="stop-31" style="stop-color:#bdbdbd" offset="0"/>
      <stop id="stop-32" style="stop-color:#d7eef4" offset="1"/>
    </linearGradient>
    <linearGradient id="gradient-14" y2="-454.31" gradientUnits="userSpaceOnUse" x2="1025.6" y1="-322.9" x1="1004.9" gradientTransform="matrix(0.262079, 0, 0.000003, 0.557213, -49.021827, 297.604818)">
      <stop id="stop-27" style="stop-color:#bdbdbd" offset="0"/>
      <stop id="stop-28" style="stop-color:#d7eef4" offset="1"/>
    </linearGradient>
    <linearGradient id="gradient-12" y2="-454.31" gradientUnits="userSpaceOnUse" x2="1025.6" y1="-322.9" x1="1004.9" gradientTransform="matrix(0.390784, 0, 0.000004, 0.660403, -229.53567, 305.691693)">
      <stop id="stop-23" style="stop-color:#bdbdbd" offset="0"/>
      <stop id="stop-24" style="stop-color:#d7eef4" offset="1"/>
    </linearGradient>
    <linearGradient id="gradient-20" y2="-231.77" gradientUnits="userSpaceOnUse" x2="978.67" gradientTransform="matrix(1.024646, 0.230251, -0.230251, 1.024646, -961.550409, 53.173103)" y1="-233.34" x1="1081.3">
      <stop id="stop-39" style="stop-color:#b3b3b3" offset="0"/>
      <stop id="stop-40" style="stop-color:#ececec" offset="1"/>
    </linearGradient>
    <linearGradient id="gradient-2" y2="-231.77" gradientUnits="userSpaceOnUse" x2="978.67" gradientTransform="matrix(0.993624, 0.231699, -0.223281, 1.031086, -817.272308, 115.112953)" y1="-233.34" x1="1081.3">
      <stop id="stop-3" style="stop-color:#b3b3b3" offset="0"/>
      <stop id="stop-4" style="stop-color:#ececec" offset="1"/>
    </linearGradient>
    <linearGradient id="gradient-1" y2="-209.75" gradientUnits="userSpaceOnUse" x2="852.17" gradientTransform="matrix(1.370268, 0.316743, -0.307931, 1.40947, -814.758755, 227.056775)" y1="-209.75" x1="742.22">
      <stop id="stop-1" style="stop-color:#c0c0c0" offset="0"/>
      <stop id="stop-2" style="stop-color:#dedede" offset="1"/>
    </linearGradient>
    <linearGradient id="gradient-3" y2="-209.75" gradientUnits="userSpaceOnUse" x2="852.17" gradientTransform="matrix(1.546112, 0.36474, -0.347449, 1.623054, -931.317492, 228.627673)" y1="-209.75" x1="742.22">
      <stop id="stop-5" style="stop-color:#c0c0c0" offset="0"/>
      <stop id="stop-6" style="stop-color:#dedede" offset="1"/>
    </linearGradient>
    <linearGradient id="gradient-22" y2="-161.4" gradientUnits="userSpaceOnUse" x2="834.73" gradientTransform="matrix(2.355782, 0, 0, 2.355782, -1195.587557, 724.32764)" y1="-161.4" x1="763.71">
      <stop id="stop-43" style="stop-color:#550000" offset="0"/>
      <stop id="stop-44" style="stop-color:#550000" offset="0.4612"/>
      <stop id="stop-45" style="stop-color:#aa0000" offset="0.7816"/>
      <stop id="stop-46" style="stop-color:#550000" offset="1"/>
    </linearGradient>
    <radialGradient id="radialGradient3217" gradientUnits="userSpaceOnUse" cy="-104.48" cx="776.55" gradientTransform="matrix(1.8414, 0.41762, -0.36697, 1.6181, -1168.959634, -35.072991)" r="35.278">
      <stop id="stop4900" style="stop-color:#666666" offset="0"/>
      <stop id="stop4902" style="stop-color:#e6e6e6" offset="1"/>
    </radialGradient>
  </defs>
  <path id="path-4" style="fill: url(#gradient-6);" d="M 243.08 132.646 L 250.706 131.179 L 251.444 124.036 L 197.923 92.905 L 188.225 96.091 L 191.218 102.178 L 243.08 132.646 Z" transform="matrix(0.346583, -0.938019, 0.938019, 0.346583, 23.997957, 286.898529)"/>
  <path id="path-3" style="fill: url(#gradient-5);" d="M 216.541 131.481 L 230.499 136.974 L 236.534 131.226 L 216.347 86.252 L 200.461 70.717 L 186.462 78.709 L 216.541 131.481 Z" transform="matrix(0.27008, 0.962838, -0.962838, 0.27008, 248.374634, -133.551132)"/>
  <path id="path-2" style="fill: url(#gradient-4);" d="M 168.756 89.444 L 183.307 96.251 L 196.308 89.896 L 203.474 30.636 L 187.555 17.717 L 168.184 21.058 L 168.756 89.444 Z" transform="matrix(0.855323, 0.518095, -0.518095, 0.855323, 56.408298, -88.032814)"/>
  <path id="path-7" style="fill: url(#gradient-9);" d="M 79.614 109.381 L 84.73 108.503 L 85.431 98.84 L 69.313 62.046 L 63.469 57.353 L 62.633 70.346 L 79.614 109.381 Z" transform="matrix(0.97205, 0.234776, -0.234776, 0.97205, 21.641788, -15.050782)"/>
  <path id="path-6" style="fill: url(#gradient-8);" d="M 87.065 87.331 L 97.258 90.702 L 100.076 76.452 L 77.241 22.71 L 69.17 24.021 L 64.734 37.096 L 87.065 87.331 Z" transform="matrix(0.96347, 0.267817, -0.267817, 0.96347, 15.581438, -18.216549)"/>
  <path id="path-5" style="fill: url(#gradient-7);" d="M 77.859 76.427 L 92.41 83.234 L 105.411 76.879 L 112.577 17.619 L 96.658 4.7 L 81.542 16.56 L 77.859 76.427 Z" transform="matrix(0.984036, -0.177969, 0.177969, 0.984036, -6.304713, 17.647743)"/>
  <path id="path-14" style="fill: url(#gradient-16);" d="M 131.986 88.859 L 154.79 76.333 L 159.487 52.067 L 108.061 16.143 L 95.803 22.368 L 91.527 36.078 L 131.986 88.859 Z" transform="matrix(-0.656605, -0.754234, 0.754234, -0.656605, 163.179626, 163.999908)"/>
  <path id="path-12" style="fill: url(#gradient-14);" d="M 193.065 110.517 L 210.881 115.027 L 222.008 100.961 L 196.358 47.239 L 182.258 45.462 L 174.518 50.995 L 193.065 110.517 Z" transform="matrix(-0.443113, -0.896466, 0.896466, -0.443113, 216.39566, 288.743591)"/>
  <path id="path-10" style="fill: url(#gradient-12);" d="M 155.765 77.818 L 172.337 77.419 L 181.656 66.524 L 165.314 0.291 L 140.41 -2.877 L 124.79 14.824 L 155.765 77.818 Z" transform="matrix(0.756648, 0.653823, -0.653823, 0.756648, 61.791607, -91.475555)"/>
  <path id="path-18" style="fill: url(#gradient-20);" d="M 120.882 5.579 L 116.735 5.391 L 108.043 121.725 L 120.53 119.863 L 120.882 5.579 Z M 93.22 12.972 L 89.704 13.725 L 95.943 126.073 L 107.299 122.337 L 93.22 12.972 Z M 166 3.858 L 122.28 120.46 L 132.761 123.009 L 140.822 127.862 L 143.138 130.842 L 147.289 133.778 L 150.776 138.584 L 218.616 58.446 L 217.327 54.621 L 145.974 125.089 L 203.586 30.255 L 201.253 28.325 L 134.683 117.638 L 169.384 4.682 L 166 3.858 Z M 75.662 42.909 L 85.493 136.583 L 92.21 130.098 L 78.543 35.39 L 75.662 42.909 Z M 71.204 63.476 L 69.49 65.131 L 82.946 140.008 L 84.444 138.915 L 71.204 63.476 Z"/>
  <path id="path-1" style="fill: url(#gradient-2);" d="M 124.535 268.094 L 125.801 269.483 L 190.33 222.683 L 123.733 289.013 L 124.537 292.601 L 197.663 231.6 L 194.523 217.746 L 194.107 212.776 L 194.479 205.972 L 124.535 268.094 Z" transform="matrix(-1, 0, 0, -1, 348.17099, 374.697021)"/>
  <path d="M 125.001 139.108 m -42.529 0 a 42.529 43.684 0 1 0 85.058 0 a 42.529 43.684 0 1 0 -85.058 0 Z M 125.001 139.108 m -40.693 0 a 40.693 41.885 0 0 1 81.386 0 a 40.693 41.885 0 0 1 -81.386 0 Z" style="fill: url(#gradient-1);" bx:shape="ring 125.001 139.108 40.693 41.885 42.529 43.684 1@875cd36d"/>
  <path d="M 129.036 127.354 m -47.924 0 a 47.924 50.504 0 1 0 95.848 0 a 47.924 50.504 0 1 0 -95.848 0 Z M 129.036 127.354 m -46.314 0 a 46.314 48.735 0 0 1 92.628 0 a 46.314 48.735 0 0 1 -92.628 0 Z" style="fill: url(#gradient-3);" bx:shape="ring 129.036 127.354 46.314 48.735 47.924 50.504 1@b3b0f5af"/>
  <path d="M 117.48 154.718 m -38.673 0 a 38.673 38.673 0 1 0 77.346 0 a 38.673 38.673 0 1 0 -77.346 0 Z M 117.48 154.718 m -23.972 0 a 23.972 23.972 0 0 1 47.944 0 a 23.972 23.972 0 0 1 -47.944 0 Z" style="fill: url(#gradient-22);" bx:shape="ring 117.48 154.718 23.972 23.972 38.673 38.673 1@53a9e4ea"/>
  <ellipse style="fill:url(#radialGradient3217)" cx="114.014" cy="165.439" rx="37.245" ry="38.799"/>
</svg>