<?xml version="1.0" encoding="utf-8"?>
<svg viewBox="-29.445 -19.78 238.519 291.63" width="238.519" height="291.63" xmlns="http://www.w3.org/2000/svg" xmlns:bx="https://boxy-svg.com">
  <defs>
    <linearGradient id="gradient-4" y2="-454.31" gradientUnits="userSpaceOnUse" x2="1025.6" y1="-322.9" x1="1004.9" gradientTransform="matrix(0.336734, 0, 0.000004, 0.560185, -225.957592, 274.587684)">
      <stop id="stop-7" style="stop-color:#bdbdbd" offset="0"/>
      <stop id="stop-8" style="stop-color:#d7eef4" offset="1"/>
    </linearGradient>
    <linearGradient id="linearGradient3188" y2="-454.31" gradientUnits="userSpaceOnUse" x2="1025.6" y1="-322.9" x1="1004.9" gradientTransform="matrix(0.338939, 0, 0.000004, 0.618421, -251.748068, 294.638407)">
      <stop id="stop5014" style="stop-color:#bdbdbd" offset="0"/>
      <stop id="stop5016" style="stop-color:#d7eef4" offset="1"/>
    </linearGradient>
    <linearGradient id="gradient-8" y2="-454.31" gradientUnits="userSpaceOnUse" x2="1025.6" y1="-322.9" x1="1004.9" gradientTransform="matrix(0.395341, 0, 0.003192, 0.598711, -351.295792, 297.63122)">
      <stop id="stop-15" style="stop-color:#bdbdbd" offset="0"/>
      <stop id="stop-16" style="stop-color:#d7eef4" offset="1"/>
    </linearGradient>
    <linearGradient id="gradient-18" y2="-454.31" gradientUnits="userSpaceOnUse" x2="1025.6" y1="-322.9" x1="1004.9" gradientTransform="matrix(0.262079, 0, 0.000003, 0.557214, -223.821832, 303.316901)">
      <stop id="stop-35" style="stop-color:#bdbdbd" offset="0"/>
      <stop id="stop-36" style="stop-color:#d7eef4" offset="1"/>
    </linearGradient>
    <linearGradient id="gradient-17" y2="-454.31" gradientUnits="userSpaceOnUse" x2="1025.6" y1="-322.9" x1="1004.9" gradientTransform="matrix(0.390784, 0, 0.000004, 0.660402, -373.858749, 383.206733)">
      <stop id="stop-33" style="stop-color:#bdbdbd" offset="0"/>
      <stop id="stop-34" style="stop-color:#d7eef4" offset="1"/>
    </linearGradient>
    <linearGradient id="gradient-16" y2="-454.31" gradientUnits="userSpaceOnUse" x2="1025.6" y1="-322.9" x1="1004.9" gradientTransform="matrix(0.262079, 0, 0.000003, 0.557213, -243.910962, 358.756774)">
      <stop id="stop-31" style="stop-color:#bdbdbd" offset="0"/>
      <stop id="stop-32" style="stop-color:#d7eef4" offset="1"/>
    </linearGradient>
    <linearGradient id="gradient-15" y2="-454.31" gradientUnits="userSpaceOnUse" x2="1025.6" y1="-322.9" x1="1004.9" gradientTransform="matrix(0.395341, 0, 0.003192, 0.598711, -377.868408, 408.543458)">
      <stop id="stop-29" style="stop-color:#bdbdbd" offset="0"/>
      <stop id="stop-30" style="stop-color:#d7eef4" offset="1"/>
    </linearGradient>
    <linearGradient id="gradient-9" y2="-454.31" gradientUnits="userSpaceOnUse" x2="1025.6" y1="-322.9" x1="1004.9" gradientTransform="matrix(0.262079, 0, 0.000003, 0.557212, -201.547517, 412.508973)">
      <stop id="stop-17" style="stop-color:#bdbdbd" offset="0"/>
      <stop id="stop-18" style="stop-color:#d7eef4" offset="1"/>
    </linearGradient>
    <linearGradient id="gradient-5" y2="-454.31" gradientUnits="userSpaceOnUse" x2="1025.6" y1="-322.9" x1="1004.9" gradientTransform="matrix(0.295256, 0, 0.000004, 0.577106, -232.543684, 435.018369)">
      <stop id="stop-9" style="stop-color:#bdbdbd" offset="0"/>
      <stop id="stop-10" style="stop-color:#d7eef4" offset="1"/>
    </linearGradient>
    <linearGradient id="gradient-7" y2="-454.31" gradientUnits="userSpaceOnUse" x2="1025.6" y1="-322.9" x1="1004.9" gradientTransform="matrix(0.262079, 0, 0.000003, 0.557212, -137.856059, 423.375759)">
      <stop id="stop-13" style="stop-color:#bdbdbd" offset="0"/>
      <stop id="stop-14" style="stop-color:#d7eef4" offset="1"/>
    </linearGradient>
    <linearGradient id="gradient-6" y2="-454.31" gradientUnits="userSpaceOnUse" x2="1025.6" y1="-322.9" x1="1004.9" gradientTransform="matrix(0.262079, 0, 0.000003, 0.557212, -120.910051, 406.794179)">
      <stop id="stop-11" style="stop-color:#bdbdbd" offset="0"/>
      <stop id="stop-12" style="stop-color:#d7eef4" offset="1"/>
    </linearGradient>
    <linearGradient id="gradient-13" y2="-454.31" gradientUnits="userSpaceOnUse" x2="1025.6" y1="-322.9" x1="1004.9" gradientTransform="matrix(0.338939, 0, 0.000004, 0.618422, -183.072189, 416.05729)">
      <stop id="stop-25" style="stop-color:#bdbdbd" offset="0"/>
      <stop id="stop-26" style="stop-color:#d7eef4" offset="1"/>
    </linearGradient>
    <linearGradient id="gradient-14" y2="-454.31" gradientUnits="userSpaceOnUse" x2="1025.6" y1="-322.9" x1="1004.9" gradientTransform="matrix(0.262079, 0, 0.000003, 0.557213, -77.816193, 349.2146)">
      <stop id="stop-27" style="stop-color:#bdbdbd" offset="0"/>
      <stop id="stop-28" style="stop-color:#d7eef4" offset="1"/>
    </linearGradient>
    <linearGradient id="gradient-12" y2="-454.31" gradientUnits="userSpaceOnUse" x2="1025.6" y1="-322.9" x1="1004.9" gradientTransform="matrix(0.390784, 0, 0.000004, 0.660403, -216.057518, 373.228224)">
      <stop id="stop-23" style="stop-color:#bdbdbd" offset="0"/>
      <stop id="stop-24" style="stop-color:#d7eef4" offset="1"/>
    </linearGradient>
    <linearGradient id="gradient-11" y2="-454.31" gradientUnits="userSpaceOnUse" x2="1025.6" y1="-322.9" x1="1004.9" gradientTransform="matrix(0.338939, 0, 0.000004, 0.618421, -180.614499, 325.089169)">
      <stop id="stop-21" style="stop-color:#bdbdbd" offset="0"/>
      <stop id="stop-22" style="stop-color:#d7eef4" offset="1"/>
    </linearGradient>
    <linearGradient id="gradient-10" y2="-454.31" gradientUnits="userSpaceOnUse" x2="1025.6" y1="-322.9" x1="1004.9" gradientTransform="matrix(0.295256, 0, 0.000004, 0.577107, -159.7453, 287.93267)">
      <stop id="stop-19" style="stop-color:#bdbdbd" offset="0"/>
      <stop id="stop-20" style="stop-color:#d7eef4" offset="1"/>
    </linearGradient>
    <linearGradient id="linearGradient3220" y2="-231.77" gradientUnits="userSpaceOnUse" x2="978.67" gradientTransform="matrix(1.024646, 0.230251, -0.230251, 1.024646, -989.053629, 12.261776)" y1="-233.34" x1="1081.3">
      <stop id="stop4966" style="stop-color:#b3b3b3" offset="0"/>
      <stop id="stop4968" style="stop-color:#ececec" offset="1"/>
    </linearGradient>
    <linearGradient id="gradient-2" y2="-231.77" gradientUnits="userSpaceOnUse" x2="978.67" gradientTransform="matrix(0.993624, 0.231699, -0.223281, 1.031086, -950.77742, 81.420418)" y1="-233.34" x1="1081.3">
      <stop id="stop-3" style="stop-color:#b3b3b3" offset="0"/>
      <stop id="stop-4" style="stop-color:#ececec" offset="1"/>
    </linearGradient>
    <radialGradient id="radialGradient3217" gradientUnits="userSpaceOnUse" cy="-104.48" cx="776.55" gradientTransform="matrix(3.967263, 0.899754, -0.79063, 3.486167, -2736.653458, 84.510023)" r="35.278">
      <stop id="stop4900" style="stop-color:#666666" offset="0"/>
      <stop id="stop4902" style="stop-color:#e6e6e6" offset="1"/>
    </radialGradient>
    <linearGradient id="gradient-1" y2="-209.75" gradientUnits="userSpaceOnUse" x2="852.17" gradientTransform="matrix(1.370268, 0.316743, -0.307931, 1.40947, -849.180151, 202.90613)" y1="-209.75" x1="742.22">
      <stop id="stop-1" style="stop-color:#c0c0c0" offset="0"/>
      <stop id="stop-2" style="stop-color:#dedede" offset="1"/>
    </linearGradient>
    <linearGradient id="linearGradient3214" y2="-161.4" gradientUnits="userSpaceOnUse" x2="834.73" gradientTransform="matrix(2.355782, 0, 0, 2.355782, -1222.248721, 684.215573)" y1="-161.4" x1="763.71">
      <stop id="stop4918" style="stop-color:#550000" offset="0"/>
      <stop id="stop4926" style="stop-color:#550000" offset="0.4612"/>
      <stop id="stop4924" style="stop-color:#aa0000" offset="0.7816"/>
      <stop id="stop4920" style="stop-color:#550000" offset="1"/>
    </linearGradient>
    <linearGradient id="gradient-3" y2="-209.75" gradientUnits="userSpaceOnUse" x2="852.17" gradientTransform="matrix(1.546112, 0.36474, -0.347449, 1.623054, -969.959289, 216.09111)" y1="-209.75" x1="742.22">
      <stop id="stop-5" style="stop-color:#c0c0c0" offset="0"/>
      <stop id="stop-6" style="stop-color:#dedede" offset="1"/>
    </linearGradient>
  </defs>
  <path id="path-2" style="fill: url(#gradient-4);" d="M 100.37 64.634 L 112.59 68.847 L 125.185 64.235 L 133.891 29.132 L 117.919 11.879 L 96.795 22.582 L 100.37 64.634 Z" transform="matrix(0.975667, 0.219257, -0.219257, 0.975667, 11.656498, -24.307617)"/>
  <path id="path4978" style="fill: url(#linearGradient3188);" d="M 77.675 65.399 L 92.018 65.094 L 102.39 54.169 L 96.155 20.111 L 72.232 9.859 L 59.973 36.379 L 77.675 65.399 Z" transform="matrix(0.975667, 0.219257, -0.219257, 0.975667, 10.225802, -16.883993)"/>
  <path id="path-6" style="fill: url(#gradient-8);" d="M 30.651 73.193 L 45.021 77.695 L 59.782 72.765 L 69.803 35.249 L 50.953 16.81 L 26.215 28.249 L 30.651 73.193 Z" transform="matrix(0.798694, -0.601737, 0.601737, 0.798694, -18.769094, 38.401005)"/>
  <path id="path-16" style="fill: url(#gradient-18);" d="M 8.121 106.007 L 33.564 107.202 L 49.955 85.634 L 24.212 48.27 L 10.254 51.527 L -2.433 60.695 L 8.121 106.007 Z" transform="matrix(-0.78376, 0.621063, -0.621063, -0.78376, 85.730934, 124.531502)"/>
  <path id="path-15" style="fill: url(#gradient-17);" d="M 5.955 138.405 L 22.491 138.081 L 34.45 126.414 L 27.262 90.044 L -0.321 79.097 L -14.455 107.416 L 5.955 138.405 Z" transform="matrix(0.446965, -0.894552, 0.894552, 0.446965, -91.75441, 69.086418)"/>
  <path id="path-14" style="fill: url(#gradient-16);" d="M 11.649 162.939 L 32.297 149.977 L 37.71 127.248 L 2.907 104.263 L -12.106 111.116 L -15.681 127.458 L 11.649 162.939 Z" transform="matrix(-0.492064, 0.870559, -0.870559, -0.492064, 132.741898, 189.752472)"/>
  <path id="path-13" style="fill: url(#gradient-15);" d="M 4.078 184.105 L 18.448 188.607 L 33.209 183.677 L 43.23 146.161 L 24.38 127.722 L -0.358 139.161 L 4.078 184.105 Z" transform="matrix(-0.545217, -0.838295, 0.838295, -0.545217, -99.46524, 262.368164)"/>
  <path id="path-7" style="fill: url(#gradient-9);" d="M 27.54 214.254 L 53.954 212.95 L 66.799 195.161 L 42.967 158.512 L 29.732 160.364 L 20.12 171.709 L 27.54 214.254 Z" transform="matrix(0.509142, 0.860683, -0.860683, 0.509142, 181.749069, 54.08279)"/>
  <path id="path-3" style="fill: url(#gradient-5);" d="M 48.929 217.558 L 64.303 223.062 L 76.448 220.669 L 84.375 182.017 L 68.975 164.373 L 46.571 175.569 L 48.929 217.558 Z" transform="matrix(-0.975667, -0.219257, 0.219257, -0.975667, 89.334671, 397.349243)"/>
  <path id="path-5" style="fill: url(#gradient-7);" d="M 91.231 225.121 L 117.645 223.817 L 130.49 206.028 L 106.658 169.379 L 93.423 171.231 L 83.811 182.576 L 91.231 225.121 Z" transform="matrix(0.975667, 0.219257, -0.219257, 0.975667, 45.491779, -20.312353)"/>
  <path id="path-4" style="fill: url(#gradient-6);" d="M 134.65 210.977 L 155.298 198.015 L 160.711 175.286 L 125.908 152.301 L 110.895 159.154 L 107.32 175.496 L 134.65 210.977 Z" transform="matrix(0.975667, 0.219257, -0.219257, 0.975667, 42.26862, -24.431345)"/>
  <path id="path-11" style="fill: url(#gradient-13);" d="M 146.233 185.965 L 160.694 186.513 L 174.684 177.259 L 167.753 135.383 L 141.377 129.328 L 125.803 149.957 L 146.233 185.965 Z" transform="matrix(-0.698911, 0.715208, -0.715208, -0.698911, 377.679718, 153.871658)" bx:origin="0.627 0.474"/>
  <path id="path-12" style="fill: url(#gradient-14);" d="M 151.272 150.96 L 177.686 149.656 L 190.531 131.868 L 166.699 95.219 L 153.464 97.071 L 143.852 108.416 L 151.272 150.96 Z" transform="matrix(0.560942, -0.827855, 0.827855, 0.560942, -28.493504, 192.453781)"/>
  <path id="path-10" style="fill: url(#gradient-12);" d="M 163.756 128.426 L 180.292 128.102 L 192.251 116.435 L 185.063 80.065 L 157.48 69.118 L 143.346 97.437 L 163.756 128.426 Z" transform="matrix(-0.118332, 0.992974, -0.992974, -0.118332, 285.732452, -56.159668)"/>
  <path id="path-9" style="fill: url(#gradient-11);" d="M 148.81 95.85 L 163.153 95.545 L 173.525 84.62 L 167.29 50.562 L 143.367 40.31 L 131.108 66.83 L 148.81 95.85 Z" transform="matrix(0.381427, 0.924399, -0.924399, 0.381427, 157.151962, -98.688774)"/>
  <path id="path-8" style="fill: url(#gradient-10);" d="M 121.726 70.472 L 137.1 75.976 L 149.245 73.583 L 157.172 34.931 L 141.772 17.287 L 119.368 28.483 L 121.726 70.472 Z" transform="matrix(0.859454, 0.511213, -0.511213, 0.859454, 43.271908, -64.131546)"/>
  <path id="path4947" style="fill:url(#linearGradient3220)" d="M 80.259 14.945 L 77.091 15.331 L 80.54 80.814 L 93.027 78.952 L 80.259 14.945 Z M 34.765 24.323 L 32.215 26.098 L 66.723 88.103 L 77.424 81.69 L 34.765 24.323 Z M 120.111 16.601 L 94.777 79.549 L 105.258 82.098 L 113.319 86.951 L 115.635 89.931 L 119.786 92.867 L 123.273 97.673 L 168.899 57.138 L 166.804 54.46 L 118.471 84.178 L 152.881 29.721 L 150.646 27.907 L 108.601 77.076 L 123.196 17.702 L 120.111 16.601 Z M -2.893 65.764 L 57.996 100.171 L 64.707 89.187 L -1.521 62.41 L -2.893 65.764 Z M -13.632 103.447 L -13.74 106.279 L 49.598 115.653 L -8.626 139.376 L -7.018 141.806 L 57.567 128.023 L 54.237 116.901 L 54.516 110.077 L 57.137 101.23 L -13.632 103.447 Z"/>
  <path id="path-1" style="fill: url(#gradient-2);" d="M 81.561 82.719 L 78.051 83.671 L 86.436 150.401 L 98.547 148.527 L 81.561 82.719 Z M 44.143 101.042 L 41.281 102.861 L 73.038 157.736 L 83.414 151.285 L 44.143 101.042 Z M 123.963 84.565 L 100.243 149.127 L 110.032 152.567 L 118.224 156.576 L 124.205 160.946 L 126.738 166.084 L 128.425 169.536 L 187.329 131.992 L 185.564 129.439 L 129.11 157.47 L 159.117 99.766 L 155.925 98.017 L 117.876 149.613 L 127.914 85.753 L 123.963 84.565 Z M 12.847 139.503 L 64.576 169.879 L 71.083 158.827 L 13.793 137.025 L 12.847 139.503 Z M 1.195 169.583 L 1.033 173.022 L 56.711 183.841 L -2.253 203.389 L -1.648 206.269 L 64.158 197.907 L 60.931 186.714 L 61.202 179.846 L 63.743 170.946 L 1.195 169.583 Z" transform="matrix(-1, 0, 0, -1, 187.70401, 300.168976)"/>
  <ellipse style="fill: url(#radialGradient3217);" cx="91.058" cy="114.317" rx="34.094" ry="34.094"/>
  <path d="M 90.579 114.958 m -42.529 0 a 42.529 43.684 0 1 0 85.058 0 a 42.529 43.684 0 1 0 -85.058 0 Z M 90.579 114.958 m -40.693 0 a 40.693 41.885 0 0 1 81.386 0 a 40.693 41.885 0 0 1 -81.386 0 Z" style="fill: url(#gradient-1);" bx:shape="ring 90.579 114.958 40.693 41.885 42.529 43.684 1@b8b190b8"/>
  <path d="M 90.819 114.606 m -37.672 0 a 37.672 37.672 0 1 0 75.344 0 a 37.672 37.672 0 1 0 -75.344 0 Z M 90.819 114.606 m -33.548 0 a 33.548 33.548 0 0 1 67.096 0 a 33.548 33.548 0 0 1 -67.096 0 Z" style="fill: url(#linearGradient3214);" bx:shape="ring 90.819 114.606 33.548 33.548 37.672 37.672 1@aa0390c2"/>
  <path d="M 90.396 114.817 m -47.924 0 a 47.924 50.504 0 1 0 95.848 0 a 47.924 50.504 0 1 0 -95.848 0 Z M 90.396 114.817 m -46.314 0 a 46.314 48.735 0 0 1 92.628 0 a 46.314 48.735 0 0 1 -92.628 0 Z" style="fill: url(#gradient-3);" bx:shape="ring 90.396 114.817 46.314 48.735 47.924 50.504 1@6ce85c73"/>
</svg>